HIERARCHY
ROOT Hips
{
    OFFSET 0.000000 0.000000 0.000000
    CHANNELS 6 Xposition Yposition Zposition Zrotation Xrotation Yrotation
    JOINT Spine
    {
        OFFSET -0.000000 14.517291 0.000000
        CHANNELS 3 Zrotation Xrotation Yrotation
        JOINT Spine1
        {
            OFFSET -0.000000 37.558300 0.000000
            CHANNELS 3 Zrotation Xrotation Yrotation
            JOINT Neck
            {
                OFFSET -0.000000 37.404057 3.400369
                CHANNELS 3 Zrotation Xrotation Yrotation
                JOINT Head
                {
                    OFFSET -0.000000 24.785618 -3.540803
                    CHANNELS 3 Zrotation Xrotation Yrotation
                    End Site
                    {
                        OFFSET -0.000000 35.408028 0.000000
                    }
                }
            }
            JOINT LeftShoulder
            {
                OFFSET 6.992933 33.973492 -0.192664
                CHANNELS 3 Zrotation Xrotation Yrotation
                JOINT LeftArm
                {
                    OFFSET 21.527611 0.000000 0.000000
                    CHANNELS 3 Zrotation Xrotation Yrotation
                    JOINT LeftForeArm
                    {
                        OFFSET 56.353916 0.000000 0.000000
                        CHANNELS 3 Zrotation Xrotation Yrotation
                        JOINT LeftHand
                        {
                            OFFSET 47.774071 0.000000 0.000000
                            CHANNELS 3 Zrotation Xrotation Yrotation
                            End Site
                            {
                                OFFSET 26.556021 0.000000 0.000000
                            }
                        }
                    }
                }
            }
            JOINT RightShoulder
            {
                OFFSET -7.065357 33.973492 -0.192664
                CHANNELS 3 Zrotation Xrotation Yrotation
                JOINT RightArm
                {
                    OFFSET -21.527611 0.000000 0.000000
                    CHANNELS 3 Zrotation Xrotation Yrotation
                    JOINT RightForeArm
                    {
                        OFFSET -56.353916 0.000000 0.000000
                        CHANNELS 3 Zrotation Xrotation Yrotation
                        JOINT RightHand
                        {
                            OFFSET -47.774071 0.000000 0.000000
                            CHANNELS 3 Zrotation Xrotation Yrotation
                            End Site
                            {
                                OFFSET -26.556021 0.000000 0.000000
                            }
                        }
                    }
                }
            }
        }
    }
    JOINT LeftUpLeg
    {
        OFFSET 17.704014 0.000000 0.000000
        CHANNELS 3 Zrotation Xrotation Yrotation
        JOINT LeftLeg
        {
            OFFSET -0.000000 -81.181816 0.000000
            CHANNELS 3 Zrotation Xrotation Yrotation
            JOINT LeftFoot
            {
                OFFSET -0.000000 -62.821102 0.000000
                CHANNELS 3 Zrotation Xrotation Yrotation
                JOINT LeftToeBase
                {
                    OFFSET -0.000000 -11.507608 26.556021
                    CHANNELS 3 Zrotation Xrotation Yrotation
                    End Site
                    {
                        OFFSET -0.000000 0.000000 7.081605
                    }
                }
            }
        }
    }
    JOINT RightUpLeg
    {
        OFFSET -17.704014 0.000000 0.000000
        CHANNELS 3 Zrotation Xrotation Yrotation
        JOINT RightLeg
        {
            OFFSET -0.000000 -81.181816 0.000000
            CHANNELS 3 Zrotation Xrotation Yrotation
            JOINT RightFoot
            {
                OFFSET -0.000000 -62.821102 0.000000
                CHANNELS 3 Zrotation Xrotation Yrotation
                JOINT RightToeBase
                {
                    OFFSET -0.000000 -11.507608 26.556021
                    CHANNELS 3 Zrotation Xrotation Yrotation
                    End Site
                    {
                        OFFSET -0.000000 0.000000 7.081605
                    }
                }
            }
        }
    }
}
MOTION
Frames:    5
Frame Time:    0.008333
10.834620    154.602432    -118.757339    -0.981624    -7.174739    45.898777    0.343607    -2.932064    -1.605703    -9.548414    4.080489    -0.199012    -1.071229    -0.791545    -20.908222    20.478273    7.433537    -20.159084    8.675570    5.906172    -29.547470    -28.624460    23.745193    -78.805168    45.250164    -43.556133    -5.550073    10.370440    -41.650368    3.021087    -16.201838    -9.067139    0.634369    31.488667    -22.732767    82.997040    2.208795    -6.549690    16.960072    -4.091883    -7.930726    29.107286    21.535152    -4.752558    0.086732    -14.111180    38.425121    -19.612101    3.896463    -28.261044    42.374908    0.000000    0.000000    0.000000    -16.408987    -16.469564    -15.036655    9.322944    23.873554    -16.653862    5.361325    9.373873    -14.181797    0.000000    0.000000    0.000000    
10.826596    154.603363    -118.774544    -0.974566    -7.176994    45.915447    0.354622    -2.919198    -1.622123    -9.560248    4.073474    -0.204633    -1.100732    -0.800295    -20.911076    20.486420    7.459878    -20.161591    8.659915    5.921998    -29.546885    -28.611507    23.768810    -78.795090    45.195156    -43.593769    -5.559413    10.371035    -41.683403    3.098150    -16.225111    -9.054116    0.629650    31.502743    -22.739376    83.017021    2.204202    -6.534128    16.962015    -4.121476    -7.923136    29.131809    21.533152    -4.758861    0.098190    -14.099657    38.430504    -19.624296    3.889076    -28.249561    42.340214    0.000000    0.000000    0.000000    -16.407906    -16.463326    -15.046037    9.300279    23.871468    -16.642273    5.371223    9.378673    -14.190372    0.000000    0.000000    0.000000    
10.815946    154.601715    -118.789886    -0.967980    -7.182838    45.922691    0.371182    -2.896197    -1.633645    -9.588910    4.051505    -0.209396    -1.102516    -0.811375    -20.904654    20.474731    7.490273    -20.160757    8.667120    5.939888    -29.550503    -28.621695    23.813711    -78.781113    45.168045    -43.624283    -5.588700    10.448731    -41.697220    3.216514    -16.215302    -9.045105    0.626353    31.487888    -22.731552    83.031761    2.190050    -6.526369    16.963251    -4.104046    -7.909021    29.136217    21.537827    -4.756949    0.120612    -14.093362    38.433815    -19.653540    3.894717    -28.242008    42.329174    0.000000    0.000000    0.000000    -16.400797    -16.457607    -15.041884    9.286255    23.861118    -16.647673    5.371461    9.387345    -14.189752    0.000000    0.000000    0.000000    
10.807247    154.600830    -118.810440    -0.966843    -7.178751    45.924103    0.388942    -2.888566    -1.646044    -9.618437    4.041594    -0.213507    -1.118319    -0.792321    -20.907803    20.498529    7.476039    -20.157494    8.674711    5.937788    -29.543802    -28.580347    23.847826    -78.799751    45.129219    -43.628769    -5.561681    10.484984    -41.707031    3.275467    -16.216583    -9.057666    0.632021    31.487154    -22.726845    83.031075    2.197731    -6.537428    16.988420    -4.099724    -7.920839    29.143000    21.537430    -4.760604    0.125384    -14.105913    38.424294    -19.647663    3.896220    -28.251137    42.325073    0.000000    0.000000    0.000000    -16.402128    -16.461170    -15.066038    9.268313    23.850363    -16.597820    5.355508    9.399397    -14.216124    0.000000    0.000000    0.000000    
10.800388    154.597977    -118.828156    -0.958465    -7.178770    45.920155    0.392847    -2.868691    -1.648327    -9.628924    4.024885    -0.215258    -1.122161    -0.807368    -20.895895    20.477200    7.492750    -20.148718    8.679370    5.935803    -29.546385    -28.558014    23.869495    -78.825233    45.066013    -43.622002    -5.547502    10.554587    -41.700893    3.344979    -16.214874    -9.055088    0.625813    31.468893    -22.716946    83.040672    2.174070    -6.548421    17.010004    -4.097527    -7.927447    29.125345    21.535549    -4.753935    0.143276    -14.113226    38.416618    -19.625200    3.922694    -28.227009    42.287766    0.000000    0.000000    0.000000    -16.400976    -16.463657    -15.071608    9.244493    23.850929    -16.588684    5.363929    9.402415    -14.196832    0.000000    0.000000    0.000000    
